# xmcd
#
# Track frame offsets:
#	150
#	16077
#	35262
#	48510
#	62512
#	80777
#	91035
#	107635
#	121940
#	138212
#
# Disc length: 2114 seconds
#
# Revision: 0
# Processed by: cddbd v1.5.2PL0 Copyright (c) Steve Scherf et al.
# Submitted via: audiograbber 1.83.01
#
DISCID=7208400a
DTITLE=Chip Taylor - Gasoline
DYEAR=1971
DGENRE=
TTITLE0=Londonderry Company
TTITLE1=Angel Of The Morning
TTITLE2=Home Again
TTITLE3=Lady Lisa
TTITLE4=Oh My Marie
TTITLE5=Gasoline
TTITLE6=Lightning (Don't Stay Mad With Me)
TTITLE7=Dirty Matthew
TTITLE8=You Didn't Get Here Last Night
TTITLE9=Your Honor
EXTD=
EXTT0=
EXTT1=
EXTT2=
EXTT3=
EXTT4=
EXTT5=
EXTT6=
EXTT7=
EXTT8=
EXTT9=
PLAYORDER=
